<?xml version="1.0" standalone="no"?><!DOCTYPE svg PUBLIC "-//W3C//DTD SVG 1.1//EN" "http://www.w3.org/Graphics/SVG/1.1/DTD/svg11.dtd"><svg t="1781452914601" class="icon" viewBox="0 0 1024 1024" version="1.1" xmlns="http://www.w3.org/2000/svg" p-id="4979" xmlns:xlink="http://www.w3.org/1999/xlink" width="200" height="200"><path d="M419.405333 0c231.683703 0 419.456512 185.265077 419.456512 413.724553a408.862625 408.862625 0 0 1-101.179298 269.55557l275.748132 280.098278a35.108244 35.108244 0 0 1-0.767673 50.154634 36.336521 36.336521 0 0 1-50.819951-0.716495l-275.49224-279.944743a421.19657 421.19657 0 0 1-266.945482 94.628488C187.823987 827.500285 0 642.235208 0 413.724553 0 185.265077 187.823987 0 419.405333 0z m0 70.932983c-191.918243 0-347.499965 153.483416-347.499965 342.79157 0 189.359333 155.581722 342.842749 347.499965 342.842749s347.551143-153.534594 347.551144-342.842749c0-189.359333-155.581722-342.791571-347.499965-342.79157z" fill="#2c2c2c" p-id="4980"></path></svg>